<?xml version="1.0" encoding="utf-8"?>
<!-- Generator: Adobe Illustrator 26.0.3, SVG Export Plug-In . SVG Version: 6.00 Build 0)  -->
<svg version="1.0" id="Layer_1" xmlns="http://www.w3.org/2000/svg" xmlns:xlink="http://www.w3.org/1999/xlink"
     x="0px" y="0px" viewBox="0 0 246 177.2" style="enable-background:new 0 0 246 177.2;"
     xml:space="preserve" width="500px" height="360px">

<style type="text/css">
	.st0{clip-path:url(#SVGID_00000068653969929474614040000008685723764886897581_);}
	.st1{fill:#3F3F3F;}
	.st2{fill:#67001F;}
	.st3{fill:#FFBA00;}
	
</style>
<g>
	<defs>
		<rect id="SVGID_1_" x="23" y="56.2" width="200" height="64.8"/>
	</defs>
	<clipPath id="SVGID_00000030478769104767606170000016270799909681218999_">
		<use xlink:href="#SVGID_1_"  style="overflow:visible;"/>
	</clipPath>
	<g style="clip-path:url(#SVGID_00000030478769104767606170000016270799909681218999_);">
		<path class="st1" d="M25.7,114.7c0.8,0,1.6,0.4,2,1.1l-0.7,0.4c-0.3-0.4-0.8-0.7-1.3-0.7c-1,0.1-1.8,1-1.7,2
			c0.1,0.9,0.8,1.6,1.7,1.7c0.5,0,1-0.2,1.4-0.7l0.7,0.4c-0.4,0.7-1.2,1.1-2,1.1c-1.4,0-2.6-1.2-2.6-2.6
			C23.1,115.9,24.2,114.7,25.7,114.7C25.7,114.7,25.7,114.7,25.7,114.7"/>
		<path class="st1" d="M33.3,119.8h-1l-0.4-1h-2.4l-0.4,1h-1l2.1-5h1L33.3,119.8z M29.8,118.1h1.9l-1-2.4L29.8,118.1z"/>
		<polygon class="st1" points="34.2,114.8 35.1,114.8 35.1,119.1 37.5,119.1 37.5,119.8 34.2,119.8 		"/>
		<rect x="38.7" y="114.8" class="st1" width="0.8" height="5"/>
		<polygon class="st1" points="41,114.8 44.6,114.8 44.6,115.6 41.9,115.6 41.9,116.9 44.5,116.9 44.5,117.6 41.9,117.6 41.9,119.8 
			41,119.8 		"/>
		<path class="st1" d="M48.1,114.7c1.4,0,2.6,1.2,2.6,2.6c0,1.4-1.2,2.6-2.6,2.6c-1.4,0-2.6-1.2-2.6-2.6c-0.1-1.4,1-2.5,2.4-2.6
			C48,114.7,48,114.7,48.1,114.7 M48.1,115.5c-1-0.1-1.9,0.7-2,1.7s0.7,1.9,1.7,2s1.9-0.7,2-1.7c0,0,0-0.1,0-0.1
			c0.1-0.9-0.6-1.8-1.6-1.8C48.2,115.5,48.1,115.5,48.1,115.5"/>
		<path class="st1" d="M53.7,118h-0.9v1.9H52v-5h2.2c0.8-0.1,1.6,0.5,1.7,1.4c0,0.1,0,0.1,0,0.2c0.1,0.8-0.5,1.4-1.3,1.5l1.3,1.9h-1
			L53.7,118z M54.1,115.6h-1.3v1.6h1.3c0.5,0,0.9-0.3,0.9-0.7c0-0.5-0.3-0.9-0.7-0.9C54.2,115.6,54.2,115.6,54.1,115.6"/>
		<polygon class="st1" points="58,116.1 58,119.8 57.2,119.8 57.2,114.8 58.1,114.8 60.8,118.5 60.8,114.8 61.7,114.8 61.7,119.8 
			60.8,119.8 		"/>
		<rect x="63.2" y="114.8" class="st1" width="0.8" height="5"/>
		<path class="st1" d="M70.1,119.8h-1l-0.4-1h-2.4l-0.4,1h-1l2.1-5h1L70.1,119.8z M66.5,118.1h1.9l-1-2.4L66.5,118.1z"/>
		<path class="st1" d="M73.6,118.5c0.4,0.4,1,0.7,1.6,0.7c0.8,0,1.1-0.4,1.1-0.8s-0.6-0.6-1.2-0.8c-0.8-0.2-1.8-0.4-1.8-1.4
			c0-0.8,0.8-1.4,1.8-1.4c0.7,0,1.4,0.2,1.9,0.7l-0.4,0.6c-0.4-0.4-0.9-0.6-1.5-0.6c-0.6,0-1,0.3-1,0.7s0.5,0.5,1.1,0.7
			c0.9,0.2,1.9,0.4,1.9,1.6c0,0.9-0.7,1.5-2,1.5c-0.7,0-1.5-0.3-2-0.8L73.6,118.5z"/>
		<polygon class="st1" points="79.5,115.6 78,115.6 78,114.8 81.8,114.8 81.8,115.6 80.3,115.6 80.3,119.8 79.5,119.8 		"/>
		<path class="st1" d="M87.1,119.8h-1l-0.4-1h-2.4l-0.4,1h-1l2.1-5h1L87.1,119.8z M83.5,118.1h1.9l-1-2.4L83.5,118.1z"/>
		<polygon class="st1" points="88.7,115.6 87.2,115.6 87.2,114.8 91,114.8 91,115.6 89.5,115.6 89.5,119.8 88.7,119.8 		"/>
		<polygon class="st1" points="92.2,114.8 95.7,114.8 95.7,115.6 93,115.6 93,116.9 95.6,116.9 95.6,117.6 93,117.6 93,119.1 
			95.7,119.1 95.7,119.8 92.2,119.8 		"/>
		<path class="st1" d="M99.6,114.8h0.9v3c-0.1,0.7,0.5,1.4,1.2,1.5c0.7,0.1,1.4-0.5,1.5-1.2c0-0.1,0-0.2,0-0.2v-3h0.9v3
			c-0.1,1.2-1.1,2.1-2.4,2.1c-1.1-0.1-2-1-2.1-2.1L99.6,114.8z"/>
		<polygon class="st1" points="106.3,116.1 106.3,119.8 105.5,119.8 105.5,114.8 106.4,114.8 109.1,118.5 109.1,114.8 110,114.8 
			110,119.8 109.1,119.8 		"/>
		<rect x="111.5" y="114.8" class="st1" width="0.8" height="5"/>
		<polygon class="st1" points="113.2,114.8 114.2,114.8 115.8,118.9 117.5,114.8 118.4,114.8 116.3,119.8 115.3,119.8 		"/>
		<polygon class="st1" points="119.3,114.8 122.9,114.8 122.9,115.6 120.2,115.6 120.2,116.9 122.8,116.9 122.8,117.6 120.2,117.6 
			120.2,119.1 122.9,119.1 122.9,119.8 119.3,119.8 		"/>
		<path class="st1" d="M126,118h-1v1.9h-0.8v-5h2.2c0.8-0.1,1.6,0.5,1.7,1.4c0,0.1,0,0.1,0,0.2c0.1,0.8-0.5,1.4-1.3,1.5l1.4,1.9h-1
			L126,118z M126.4,115.6H125v1.6h1.3c0.4,0.1,0.8-0.3,0.9-0.7c0,0,0-0.1,0-0.1C127.2,115.9,126.9,115.6,126.4,115.6
			C126.4,115.6,126.4,115.6,126.4,115.6"/>
		<path class="st1" d="M129.4,118.5c0.4,0.4,1,0.7,1.6,0.7c0.8,0,1.1-0.4,1.1-0.8s-0.6-0.6-1.2-0.8c-0.8-0.2-1.8-0.4-1.8-1.4
			c0-0.8,0.8-1.4,1.9-1.4c0.7,0,1.4,0.2,1.9,0.7l-0.4,0.6c-0.4-0.4-0.9-0.6-1.5-0.6c-0.6,0-1,0.3-1,0.7s0.5,0.5,1.1,0.7
			c0.9,0.2,1.9,0.4,1.9,1.6c0,0.9-0.7,1.5-2,1.5c-0.7,0-1.5-0.3-2-0.8L129.4,118.5z"/>
		<rect x="134.2" y="114.8" class="st1" width="0.8" height="5"/>
		<polygon class="st1" points="137.7,115.6 136.2,115.6 136.2,114.8 140.1,114.8 140.1,115.6 138.6,115.6 138.6,119.8 137.7,119.8 
					"/>
		<polygon class="st1" points="142.6,117.7 140.5,114.8 141.5,114.8 143,117 144.5,114.8 145.5,114.8 143.4,117.7 143.4,119.8 
			142.6,119.8 		"/>
		<path class="st1" d="M145.6,120.7c0.3-0.2,0.5-0.5,0.6-0.9h-0.1c-0.3,0-0.5-0.2-0.5-0.5c0,0,0,0,0,0c0-0.3,0.2-0.6,0.5-0.6
			c0,0,0,0,0,0c0.4,0,0.7,0.3,0.6,0.7c0,0,0,0,0,0.1c0,0.6-0.3,1.1-0.8,1.4L145.6,120.7z"/>
		<path class="st1" d="M150.7,114.8h1.9c1.4,0,2.5,1.1,2.5,2.5c0,1.4-1.1,2.5-2.5,2.5h-1.9V114.8z M152.6,115.6h-1v3.5h1
			c1,0.1,1.8-0.6,1.9-1.6c0.1-1-0.6-1.8-1.6-1.9C152.8,115.6,152.7,115.6,152.6,115.6"/>
		<path class="st1" d="M158.9,114.7c1.4,0,2.6,1.2,2.6,2.6s-1.2,2.6-2.6,2.6c-1.4,0-2.6-1.2-2.6-2.6c-0.1-1.4,1-2.5,2.4-2.6
			C158.7,114.7,158.8,114.7,158.9,114.7 M158.9,115.5c-1-0.1-1.9,0.7-2,1.7c-0.1,1,0.7,1.9,1.7,2s1.9-0.7,2-1.7c0,0,0-0.1,0-0.1
			c0.1-0.9-0.6-1.8-1.6-1.8C159,115.5,158.9,115.5,158.9,115.5"/>
		<polygon class="st1" points="167.2,116.1 165.6,119.8 165.2,119.8 163.6,116.1 163.6,119.8 162.7,119.8 162.7,114.8 163.9,114.8 
			165.4,118.3 166.9,114.8 168,114.8 168,119.8 167.2,119.8 		"/>
		<rect x="169.6" y="114.8" class="st1" width="0.8" height="5"/>
		<polygon class="st1" points="172.8,116.1 172.8,119.8 171.9,119.8 171.9,114.8 172.8,114.8 175.5,118.5 175.5,114.8 176.4,114.8 
			176.4,119.8 175.5,119.8 		"/>
		<path class="st1" d="M180.3,114.7c0.8,0,1.5,0.4,2,1l-0.7,0.4c-0.3-0.4-0.8-0.6-1.4-0.6c-1,0-1.8,0.8-1.8,1.9c0,1,0.8,1.8,1.8,1.8
			c0.5,0,0.9-0.2,1.2-0.5v-0.8h-1.4v-0.7h2.3v1.9c-0.5,0.6-1.3,0.9-2.1,0.9c-1.4,0-2.6-1.2-2.6-2.6
			C177.7,115.9,178.9,114.8,180.3,114.7C180.3,114.8,180.3,114.8,180.3,114.7"/>
		<path class="st1" d="M183.8,114.8h0.9v3c-0.1,0.7,0.5,1.4,1.2,1.5c0.7,0.1,1.4-0.5,1.5-1.2c0-0.1,0-0.2,0-0.2v-3h0.9v3
			c-0.1,1.2-1.2,2.1-2.4,2c-1.1-0.1-1.9-0.9-2-2L183.8,114.8z"/>
		<polygon class="st1" points="189.7,114.8 193.2,114.8 193.2,115.6 190.6,115.6 190.6,116.9 193.2,116.9 193.2,117.6 190.6,117.6 
			190.6,119.1 193.2,119.1 193.2,119.8 189.7,119.8 		"/>
		<polygon class="st1" points="194.3,119.2 197.1,115.6 194.3,115.6 194.3,114.8 198.2,114.8 198.2,115.5 195.4,119.1 198.3,119.1 
			198.3,119.8 194.3,119.8 		"/>
		<polygon class="st1" points="205.7,117.6 202.9,117.6 202.9,119.8 202.1,119.8 202.1,114.8 202.9,114.8 202.9,116.9 205.7,116.9 
			205.7,114.8 206.5,114.8 206.5,119.8 205.7,119.8 		"/>
		<rect x="208.1" y="114.8" class="st1" width="0.8" height="5"/>
		<polygon class="st1" points="210.4,114.8 211.3,114.8 211.3,119.1 213.6,119.1 213.6,119.8 210.4,119.8 		"/>
		<polygon class="st1" points="214.9,114.8 215.7,114.8 215.7,119.1 218,119.1 218,119.8 214.9,119.8 		"/>
		<path class="st1" d="M219.3,118.5c0.4,0.4,1,0.7,1.6,0.7c0.8,0,1.1-0.4,1.1-0.8s-0.6-0.6-1.2-0.8c-0.9-0.2-1.8-0.4-1.8-1.4
			c0-0.8,0.8-1.4,1.9-1.4c0.7,0,1.4,0.2,1.9,0.7l-0.4,0.6c-0.4-0.4-0.9-0.6-1.5-0.6c-0.6,0-1,0.3-1,0.7s0.5,0.5,1.1,0.7
			c0.9,0.2,1.9,0.4,1.9,1.6c0,0.9-0.7,1.5-2,1.5c-0.7,0-1.5-0.3-2-0.8L219.3,118.5z"/>
		<path class="st2" d="M43.8,66.5c1.6,0,3.1,0.6,4.1,1.8c1.1,1.2,1.6,2.7,1.5,4.3h12.9c0.2-4.7-1.8-9.2-5.5-12.2
			c-3.7-2.9-8.3-4.4-12.9-4.2c-6.6,0-11.8,1.9-15.4,5.8S23,71.2,23,77.9c0,6.2,1.9,11.1,5.6,14.6c3.6,3.4,8.6,5.1,14.8,5.1
			c5,0,9.1-1.1,12.4-3.4c3.5-2.6,5.8-6.6,6.2-10.9c0.1-0.6,0.1-1.2,0.1-1.8v-0.7H49.8c0,1.8-0.6,3.5-1.7,4.8c-1.2,1.3-2.9,2-4.6,1.9
			c-2.3,0-4.4-1.4-5.3-3.5c-1-2.1-1.5-4.4-1.4-6.7C36.8,70.1,39.1,66.5,43.8,66.5"/>
		<path class="st2" d="M64.7,82.8c0,5.2,1.9,9,5.6,11.4c3.2,2.1,7.5,3.2,12.9,3.2c4.6,0,8.2-0.6,10.8-1.8c3.4-1.6,5.8-4.6,6.6-8.2
			c0.4-1.3,0.6-2.7,0.6-4.1c0.1-3.1-1.4-6-4-7.6c-2.7-1.4-5.5-2.6-8.4-3.3l-2.1-0.7c-1.4-0.4-2.8-0.8-4.1-1.2c-2-0.7-3-1.5-3-2.4
			c0-0.9,0.5-1.7,1.3-2c0.7-0.3,1.6-0.5,2.4-0.5c3.2,0,4.8,1.3,4.7,3.9V70h12.4c0-0.4,0-0.8,0-1.2c0.1-4.1-2.2-7.9-5.8-9.8
			c-3.6-1.8-7.7-2.7-11.8-2.6c-4.9,0-8.8,1-11.5,2.9c-3.2,2.3-4.9,5.7-4.9,10.4c-0.1,2.9,1.2,5.6,3.5,7.3c2.4,1.5,5,2.6,7.7,3.3
			c3.4,1,6,1.8,7.7,2.3c2,0.6,3,1.5,3,2.5c0,2-1.7,3-5.2,3c-3.9,0-5.8-1.6-5.8-4.9c0-0.2,0-0.3,0.1-0.4L64.7,82.8z"/>
		<path class="st2" d="M141,82.8V57h-13.3v24.6c0,3.9-1.7,5.8-5.2,5.8s-5.2-1.9-5.2-5.8V57h-13.3v25.9c0,5.1,1.9,8.9,5.6,11.4
			c3.2,2.2,7.5,3.3,12.9,3.3s9.7-1.1,12.9-3.3C139.1,91.8,141,87.9,141,82.8"/>
		<path class="st3" d="M178.3,91.1c3.1-3.6,4.6-8.5,4.6-14.7c0-6-1.7-10.7-5.2-14.2s-8.2-5.2-14.1-5.2h-19.1v39.8h19.8
			C170.4,96.8,175,94.9,178.3,91.1 M157.9,86V67.7h3.2c5.4,0,8.1,2.9,8.1,8.8c0.1,2.3-0.6,4.6-1.9,6.6c-1.3,1.9-3.6,3-5.9,2.9H157.9
			z"/>
		<polygon class="st3" points="209.7,70.6 199,70.6 199,57 185.6,57 185.6,96.8 199,96.8 199,81.4 209.7,81.4 209.7,96.8 223,96.8 
			223,57 209.7,57 		"/>
		<rect x="23" y="105.4" class="st1" width="200" height="0.8"/>
	</g>
</g>
</svg>
