<svg xmlns="http://www.w3.org/2000/svg" xmlns:xlink="http://www.w3.org/1999/xlink" viewBox="0,0,256,256" width="48px" height="48px"><g fill="none" fill-rule="nonzero" stroke="none" stroke-width="1" stroke-linecap="butt" stroke-linejoin="miter" stroke-miterlimit="10" stroke-dasharray="" stroke-dashoffset="0" font-family="none" font-weight="none" font-size="none" text-anchor="none" style="mix-blend-mode: normal"><g transform="scale(5.33333,5.33333)"><path d="M42,39h-36v-16l18,-17l18,17z" fill="#7f7f83"></path><path d="M39,21l-5,-5v-7h5zM6,39h36v5h-36z" fill="#b6b6b6"></path><path d="M24,4.3l-20,18.6l2,2.2l18,-16.7l18,16.7l2,-2.2z" fill="#198d95"></path><path d="M18,28h12v16h-12z" fill="#15c1d8"></path><path d="M21,17h6v6h-6z" fill="#84b5dd"></path><path d="M27.5,35.5c-0.3,0 -0.5,0.2 -0.5,0.5v2c0,0.3 0.2,0.5 0.5,0.5c0.3,0 0.5,-0.2 0.5,-0.5v-2c0,-0.3 -0.2,-0.5 -0.5,-0.5z" fill="#65ffda"></path></g></g></svg>