<?xml version="1.0" standalone="no"?>
<!DOCTYPE svg PUBLIC "-//W3C//DTD SVG 20010904//EN"
 "http://www.w3.org/TR/2001/REC-SVG-20010904/DTD/svg10.dtd">
<svg version="1.0" xmlns="http://www.w3.org/2000/svg"
 width="300.000000pt" height="300.000000pt" viewBox="0 0 300.000000 300.000000"
 preserveAspectRatio="xMidYMid meet">
<metadata>
Created by potrace 1.10, written by Peter Selinger 2001-2011
</metadata>
<g transform="translate(0.000000,300.000000) scale(0.100000,-0.100000)"
fill="#000000" stroke="none">
<path d="M2060 2725 c0 -33 2 -35 35 -35 33 0 35 2 35 35 0 33 -2 35 -35 35
-33 0 -35 -2 -35 -35z"/>
<path d="M928 2685 c-59 -45 -122 -140 -149 -224 -40 -129 -35 -298 13 -413
l20 -47 -95 -118 c-158 -197 -206 -297 -207 -426 l0 -67 54 44 c61 50 186 103
186 80 0 -4 -25 -43 -55 -88 -62 -91 -90 -162 -100 -253 l-7 -63 52 35 c47 32
231 100 252 93 5 -2 -25 -59 -66 -128 l-74 -125 42 -6 c85 -11 105 -30 256
-231 56 -76 103 -138 104 -138 0 0 0 39 -2 87 -2 86 -2 88 15 63 10 -13 62
-87 117 -163 54 -76 100 -137 101 -135 2 2 -1 27 -6 56 -6 29 -9 72 -7 94 3
47 -15 42 156 46 l82 2 0 39 0 39 -57 4 c-32 3 -79 -1 -108 -8 -27 -8 -71 -14
-96 -14 -42 0 -50 4 -88 45 -23 25 -46 56 -50 68 -5 13 -17 88 -27 166 -19
144 -26 154 -39 48 -4 -32 -10 -57 -14 -57 -7 0 -110 136 -145 192 -17 26 -16
28 10 70 15 24 45 67 67 96 21 30 37 55 35 57 -1 2 -75 -14 -163 -35 -88 -21
-161 -37 -163 -35 -7 7 61 164 114 262 30 56 54 104 54 107 0 2 -52 -18 -116
-45 -64 -27 -121 -49 -128 -49 -6 0 5 15 24 32 19 17 87 79 150 138 63 58 133
123 155 143 34 31 37 37 19 37 -34 0 -64 36 -64 78 0 61 -28 152 -72 231 -41
76 -52 132 -35 195 8 29 8 29 45 -33 20 -35 60 -82 89 -107 70 -60 136 -150
196 -269 l50 -100 18 78 c9 43 19 81 23 84 3 3 10 -7 16 -23 28 -74 185 -434
190 -434 3 0 45 72 93 160 49 88 90 160 92 160 23 0 55 -23 55 -40 0 -18 6
-20 56 -20 l56 0 -4 105 c-1 58 0 105 5 105 4 0 7 41 7 90 l0 90 -58 0 c-36 0
-66 -6 -78 -15 -30 -23 -36 -18 -18 18 22 42 71 105 109 139 36 33 33 33 -70
8 -88 -23 -166 -56 -238 -102 -26 -17 -49 -29 -51 -27 -1 2 -13 26 -26 54
l-24 50 -16 -80 c-9 -44 -22 -91 -29 -104 -13 -23 -14 -22 -60 50 -44 67 -111
143 -111 125 0 -4 9 -24 20 -46 18 -35 29 -130 14 -130 -3 0 -20 15 -38 33
-18 17 -66 62 -107 98 -88 78 -122 138 -122 213 0 28 7 68 16 89 9 20 12 37 8
37 -5 0 -29 -16 -53 -35z m656 -402 c-23 -52 -74 -250 -75 -293 -1 -19 -5 -48
-10 -65 -5 -19 -7 12 -5 85 4 124 24 201 71 272 32 48 40 48 19 1z"/>
<path d="M2000 2605 c0 -33 2 -35 35 -35 33 0 35 2 35 35 0 33 -2 35 -35 35
-33 0 -35 -2 -35 -35z"/>
<path d="M2130 2585 l0 -55 35 0 35 0 0 55 0 55 -35 0 -35 0 0 -55z"/>
<path d="M2150 2330 l0 -160 -25 0 c-23 0 -25 -4 -25 -45 l0 -45 41 0 41 0 -4
45 -3 45 42 0 43 0 0 160 0 160 -55 0 -55 0 0 -160z"/>
<path d="M2000 2385 l0 -95 -45 0 -45 0 0 -60 0 -60 50 0 50 0 0 40 c0 39 1
40 35 40 l35 0 0 115 0 115 -40 0 -40 0 0 -95z"/>
<path d="M2010 1980 c0 -30 0 -30 60 -30 l60 0 0 -70 0 -70 45 0 45 0 0 64 c0
36 -4 68 -10 71 -5 3 -10 19 -10 36 l0 29 -95 0 -95 0 0 -30z"/>
<path d="M1870 1910 c0 -29 2 -30 45 -30 43 0 45 1 45 30 0 29 -2 30 -45 30
-43 0 -45 -1 -45 -30z"/>
<path d="M2220 1715 l0 -55 53 0 52 0 0 -92 0 -93 58 -3 57 -3 0 96 c0 76 -3
95 -14 95 -11 0 -16 15 -18 53 l-3 52 -92 3 -93 3 0 -56z"/>
<path d="M1010 1734 c0 -11 92 -224 97 -224 2 0 1 26 -3 57 -6 53 -6 57 10 44
9 -8 48 -53 86 -101 l69 -87 3 -139 3 -139 18 165 c23 212 26 230 43 230 8 0
14 3 14 8 -2 17 -110 92 -155 108 -28 9 -80 32 -117 50 -38 19 -68 31 -68 28z
m229 -120 c26 -32 13 -54 -30 -54 -35 0 -63 35 -48 62 14 26 54 22 78 -8z"/>
<path d="M1930 1705 c-25 -13 -72 -33 -105 -45 -33 -11 -86 -41 -119 -67 -52
-42 -56 -47 -38 -54 16 -6 22 -20 27 -61 3 -29 14 -118 25 -198 l18 -145 1
145 1 145 78 99 77 98 5 -58 5 -58 43 104 c23 58 42 108 42 113 0 11 -12 8
-60 -18z m-90 -80 c17 -20 3 -54 -25 -61 -57 -14 -83 18 -46 55 24 24 54 27
71 6z"/>
<path d="M2170 1565 l0 -35 55 0 55 0 0 35 0 35 -55 0 -55 0 0 -35z"/>
<path d="M2190 1390 l0 -100 35 0 35 0 0 100 0 100 -35 0 -35 0 0 -100z"/>
<path d="M1970 1330 l0 -30 90 0 90 0 0 30 0 30 -90 0 -90 0 0 -30z"/>
<path d="M2040 1155 l0 -115 50 0 50 0 0 115 0 115 -50 0 -50 0 0 -115z"/>
<path d="M1400 1085 c-63 -29 -96 -50 -98 -62 -1 -10 3 -47 11 -82 12 -61 15
-65 45 -73 17 -5 39 -20 48 -34 10 -14 35 -34 56 -45 l39 -20 43 20 c26 13 62
21 94 21 l52 0 0 75 c0 68 2 75 20 75 16 0 20 7 20 35 0 32 -2 35 -31 35 -22
0 -32 5 -36 20 -3 11 -14 20 -25 20 -11 0 -38 11 -61 24 -67 38 -75 38 -177
-9z m158 -92 c-26 -2 -71 -2 -100 0 -29 2 -8 3 47 3 55 0 79 -1 53 -3z"/>
<path d="M2160 1040 c0 -27 3 -30 30 -30 27 0 30 3 30 30 0 27 -3 30 -30 30
-27 0 -30 -3 -30 -30z"/>
</g>
</svg>
